<svg xmlns="http://www.w3.org/2000/svg" width="33" height="34" viewBox="0 0 33 34">
  <g id="accordianIconDown" transform="translate(-0.143 0.304)">
    <g id="_Round_Navigation_arrow_drop_down_circle" data-name=" Round / Navigation / arrow_drop_down_circle" transform="translate(0 0)">
      <rect id="Path" width="33" height="34" transform="translate(0.143 -0.304)" fill="none"/>
      <path id="_Icon_Color" data-name=" Icon Color" d="M13.5,27A13.5,13.5,0,1,1,27,13.5,13.515,13.515,0,0,1,13.5,27ZM9.734,12.15a.664.664,0,0,0-.625.415.675.675,0,0,0,.152.746l3.767,3.766a.656.656,0,0,0,.468.191.69.69,0,0,0,.491-.2L17.753,13.3a.655.655,0,0,0,.154-.729.663.663,0,0,0-.627-.419Z" transform="translate(3.143 2.696)"/>
    </g>
  </g>
</svg>
