<svg xmlns="http://www.w3.org/2000/svg" xmlns:xlink="http://www.w3.org/1999/xlink" version="1.1" id="Layer_1" x="0px" y="0px" style="enable-background:new 0 0 1000 800;" xml:space="preserve" viewBox="269.52 336.29 449.77 120.57">
<style type="text/css">
	.st0{fill:#333333;}
	.st1{fill:#F0B501;}
	.st2{fill:#3B7DED;}
	.st3{opacity:0.2;}
	.st4{fill:#E43E2B;}
</style>
<g>
	<g>
		<g>
			<path class="st0" d="M453.46,352.14c-1.98-3.28-7.42-6.41-13.69-6.41c-8.08,0-11.96,3.37-11.96,7.64c0,5.01,5.94,6.41,12.87,7.23     c12.04,1.48,23.26,4.6,23.26,18.31c0,12.81-11.38,18.31-24.25,18.31c-11.79,0-20.87-3.61-25.16-14.13l9.07-4.68     c2.56,6.32,9.24,9.12,16.25,9.12c6.85,0,13.28-2.38,13.28-8.62c0-5.42-5.69-7.64-13.36-8.46c-11.79-1.4-22.68-4.52-22.68-17.41     c0-11.83,11.71-16.67,22.35-16.75c8.99,0,18.31,2.55,22.68,11.42L453.46,352.14z"/>
			<path class="st0" d="M515.4,395.74h-43.22c0-19.13,0-38.35,0-57.49h43.22v10.51h-32.41v13.22h31.26v10.1h-31.26v12.98h32.41     V395.74z"/>
			<path class="st0" d="M580.55,367.33c-0.17,14.86-9.32,29.73-29.61,29.73c-20.29,0-29.69-14.54-29.69-29.65     c0-15.11,9.73-30.3,29.69-30.3C570.82,337.11,580.72,352.3,580.55,367.33z M531.98,367.58c0.25,9.44,5.36,19.55,18.97,19.55     s18.72-10.18,18.89-19.63c0.17-9.69-5.28-20.53-18.89-20.53S531.73,357.89,531.98,367.58z"/>
			<path class="st0" d="M453.06,450.03c-4.28,4.26-9.97,6.4-15.6,6.4c-14.44,0-21.96-10.05-22.02-21.56     c-0.12-11.39,7.34-22.05,22.02-22.05c5.63,0,11.32,2.13,15.6,6.4l-2.26,1.95c-3.67-3.65-8.5-5.42-13.34-5.42     c-12.48,0-18.9,8.77-18.84,19c0.12,9.99,6.48,18.64,18.84,18.64c4.83,0,9.73-1.83,13.4-5.42L453.06,450.03z"/>
			<path class="st0" d="M502.12,434.68c-0.06,11.21-7.22,21.99-21.59,21.99c-14.38,0-21.59-10.84-21.59-22.11     c0-11.45,7.16-21.93,21.59-21.93C494.97,412.63,502.18,423.16,502.12,434.68z M462.18,434.62c0.06,9.62,6.18,19,18.35,19     c12.24,0,18.41-9.38,18.41-19c0-9.87-6.12-18.94-18.41-18.94C468.23,415.67,462.11,424.56,462.18,434.62z"/>
			<path class="st0" d="M547.33,418.05l-16.39,24.97h-1.1l-16.52-24.97v37.89h-3.3V413.3c1.59,0,2.32,0,3.92,0l16.39,24.85     l16.21-24.85h4.04v42.64h-3.24V418.05z"/>
			<path class="st0" d="M563.3,441.19v14.74H560V413.3c6.24,0,12.54,0,18.78,0c18.6,0,18.6,27.9,0,27.9H563.3z M563.3,416.34v21.87     h15.48c14.25,0,14.25-21.87,0-21.87H563.3z"/>
			<path class="st0" d="M634.08,455.94l-4.71-10.48H603.8l-4.65,10.48h-3.55l19.21-42.64h3.61l19.21,42.64H634.08z M628.09,442.41     l-11.5-25.95l-11.5,25.95H628.09z"/>
			<path class="st0" d="M644.6,413.3l28.81,35.27V413.3h3.24v42.64h-1.28l-28.87-35.21v35.21h-3.3V413.3H644.6z"/>
			<path class="st0" d="M699.23,438.88l-16.7-25.52v-0.06h3.85l14.5,22.42l14.56-22.42h3.85v0.06l-16.76,25.52v17.06h-3.3V438.88z"/>
		</g>
	</g>
	<g>
		<path class="st1" d="M390.18,354.03v64.15c0,5-2.03,9.53-5.31,12.8c-3.27,3.28-7.8,5.31-12.8,5.31c-10,0-18.11-8.11-18.11-18.11    v-10.48c0-3.01-3.64-4.53-5.77-2.4l-32.95,32.95l-13,13c-3.59,3.59-8.46,5.61-13.54,5.61c-17.21,0-25.68-20.96-13.29-32.91    l46.38-44.76c2.19-2.11,0.7-5.81-2.35-5.81H307.9c-5.06,0-9.65-2.06-12.97-5.38c-3.32-3.31-5.38-7.9-5.38-12.97    c0-10.14,8.22-18.36,18.35-18.36h64.92C382.41,336.65,390.18,344.43,390.18,354.03z"/>
		<path class="st2" d="M390.18,354.03v64.15c0,5-2.03,9.53-5.31,12.8c-3.27,3.28-7.8,5.31-12.8,5.31c-10,0-18.11-8.11-18.11-18.11    v-10.48c0-3.01-3.64-4.53-5.77-2.4l-32.95,32.95l-13,13c-3.59,3.59-8.46,5.61-13.54,5.61c-5.49,0-10.09-2.13-13.42-5.43    c-7.08-7.03-8.31-19.34,0.12-27.48l37.81-36.49h22.6v-18.54h36.25v-32.26h0.75c7.71,0,14.24,5.02,16.5,11.97    C389.88,350.33,390.18,352.14,390.18,354.03z"/>
		<path class="st3" d="M390.18,354.03v19.82l-36.22,33.85c0-3.01-3.64-4.53-5.77-2.4l-32.95,32.95l-13,13    c-3.59,3.59-8.46,5.61-13.54,5.61c-5.49,0-10.09-2.13-13.42-5.43c-2.41-6.61-1.3-14.5,4.7-20.28l45.27-43.69l1.11-1.07l9.45-9    l8.9-8.47l26.34-25.06h6.34c4.62,0,8.82,1.8,11.92,4.76C389.88,350.33,390.18,352.14,390.18,354.03z"/>
		<path class="st4" d="M372.82,336.65h-6.34l-44.69,42.53l-46.38,44.76c-12.39,11.96-3.92,32.91,13.29,32.91    c5.08,0,9.95-2.02,13.54-5.61l13-13l32.95-32.95l41.99-39.46v-11.81C390.18,344.43,382.41,336.65,372.82,336.65z"/>
	</g>
</g>
</svg>